<?xml version="1.0" standalone="yes"?><svg xmlns="http://www.w3.org/2000/svg" version="1.1" viewBox="0 0 222 222" shape-rendering="crispEdges"><rect x="0" y="0" width="222" height="222" fill="#ffff80"/><path fill="#800000" d="M24 24h6v6H24V24M30 24h6v6H30V24M36 24h6v6H36V24M42 24h6v6H42V24M48 24h6v6H48V24M54 24h6v6H54V24M60 24h6v6H60V24M72 24h6v6H72V24M96 24h6v6H96V24M102 24h6v6H102V24M108 24h6v6H108V24M114 24h6v6H114V24M126 24h6v6H126V24M132 24h6v6H132V24M144 24h6v6H144V24M156 24h6v6H156V24M162 24h6v6H162V24M168 24h6v6H168V24M174 24h6v6H174V24M180 24h6v6H180V24M186 24h6v6H186V24M192 24h6v6H192V24M24 30h6v6H24V30M60 30h6v6H60V30M72 30h6v6H72V30M78 30h6v6H78V30M90 30h6v6H90V30M96 30h6v6H96V30M102 30h6v6H102V30M114 30h6v6H114V30M126 30h6v6H126V30M132 30h6v6H132V30M138 30h6v6H138V30M156 30h6v6H156V30M192 30h6v6H192V30M24 36h6v6H24V36M36 36h6v6H36V36M42 36h6v6H42V36M48 36h6v6H48V36M60 36h6v6H60V36M72 36h6v6H72V36M78 36h6v6H78V36M96 36h6v6H96V36M108 36h6v6H108V36M120 36h6v6H120V36M126 36h6v6H126V36M132 36h6v6H132V36M138 36h6v6H138V36M144 36h6v6H144V36M156 36h6v6H156V36M168 36h6v6H168V36M174 36h6v6H174V36M180 36h6v6H180V36M192 36h6v6H192V36M24 42h6v6H24V42M36 42h6v6H36V42M42 42h6v6H42V42M48 42h6v6H48V42M60 42h6v6H60V42M78 42h6v6H78V42M84 42h6v6H84V42M108 42h6v6H108V42M132 42h6v6H132V42M138 42h6v6H138V42M144 42h6v6H144V42M156 42h6v6H156V42M168 42h6v6H168V42M174 42h6v6H174V42M180 42h6v6H180V42M192 42h6v6H192V42M24 48h6v6H24V48M36 48h6v6H36V48M42 48h6v6H42V48M48 48h6v6H48V48M60 48h6v6H60V48M78 48h6v6H78V48M90 48h6v6H90V48M120 48h6v6H120V48M138 48h6v6H138V48M156 48h6v6H156V48M168 48h6v6H168V48M174 48h6v6H174V48M180 48h6v6H180V48M192 48h6v6H192V48M24 54h6v6H24V54M60 54h6v6H60V54M72 54h6v6H72V54M108 54h6v6H108V54M114 54h6v6H114V54M132 54h6v6H132V54M138 54h6v6H138V54M156 54h6v6H156V54M192 54h6v6H192V54M24 60h6v6H24V60M30 60h6v6H30V60M36 60h6v6H36V60M42 60h6v6H42V60M48 60h6v6H48V60M54 60h6v6H54V60M60 60h6v6H60V60M72 60h6v6H72V60M84 60h6v6H84V60M96 60h6v6H96V60M108 60h6v6H108V60M120 60h6v6H120V60M132 60h6v6H132V60M144 60h6v6H144V60M156 60h6v6H156V60M162 60h6v6H162V60M168 60h6v6H168V60M174 60h6v6H174V60M180 60h6v6H180V60M186 60h6v6H186V60M192 60h6v6H192V60M72 66h6v6H72V66M90 66h6v6H90V66M96 66h6v6H96V66M108 66h6v6H108V66M114 66h6v6H114V66M144 66h6v6H144V66M36 72h6v6H36V72M42 72h6v6H42V72M48 72h6v6H48V72M60 72h6v6H60V72M72 72h6v6H72V72M84 72h6v6H84V72M114 72h6v6H114V72M120 72h6v6H120V72M132 72h6v6H132V72M144 72h6v6H144V72M150 72h6v6H150V72M156 72h6v6H156V72M162 72h6v6H162V72M180 72h6v6H180V72M186 72h6v6H186V72M192 72h6v6H192V72M24 78h6v6H24V78M30 78h6v6H30V78M36 78h6v6H36V78M42 78h6v6H42V78M48 78h6v6H48V78M54 78h6v6H54V78M72 78h6v6H72V78M84 78h6v6H84V78M102 78h6v6H102V78M114 78h6v6H114V78M120 78h6v6H120V78M168 78h6v6H168V78M192 78h6v6H192V78M36 84h6v6H36V84M42 84h6v6H42V84M60 84h6v6H60V84M84 84h6v6H84V84M90 84h6v6H90V84M108 84h6v6H108V84M144 84h6v6H144V84M156 84h6v6H156V84M162 84h6v6H162V84M168 84h6v6H168V84M174 84h6v6H174V84M186 84h6v6H186V84M192 84h6v6H192V84M24 90h6v6H24V90M42 90h6v6H42V90M48 90h6v6H48V90M54 90h6v6H54V90M66 90h6v6H66V90M90 90h6v6H90V90M102 90h6v6H102V90M114 90h6v6H114V90M120 90h6v6H120V90M132 90h6v6H132V90M150 90h6v6H150V90M168 90h6v6H168V90M30 96h6v6H30V96M42 96h6v6H42V96M60 96h6v6H60V96M66 96h6v6H66V96M84 96h6v6H84V96M108 96h6v6H108V96M114 96h6v6H114V96M120 96h6v6H120V96M126 96h6v6H126V96M132 96h6v6H132V96M156 96h6v6H156V96M162 96h6v6H162V96M168 96h6v6H168V96M174 96h6v6H174V96M24 102h6v6H24V102M30 102h6v6H30V102M36 102h6v6H36V102M42 102h6v6H42V102M66 102h6v6H66V102M72 102h6v6H72V102M78 102h6v6H78V102M84 102h6v6H84V102M90 102h6v6H90V102M96 102h6v6H96V102M102 102h6v6H102V102M108 102h6v6H108V102M126 102h6v6H126V102M132 102h6v6H132V102M138 102h6v6H138V102M144 102h6v6H144V102M150 102h6v6H150V102M156 102h6v6H156V102M180 102h6v6H180V102M186 102h6v6H186V102M30 108h6v6H30V108M42 108h6v6H42V108M48 108h6v6H48V108M54 108h6v6H54V108M60 108h6v6H60V108M96 108h6v6H96V108M102 108h6v6H102V108M126 108h6v6H126V108M132 108h6v6H132V108M138 108h6v6H138V108M144 108h6v6H144V108M156 108h6v6H156V108M168 108h6v6H168V108M174 108h6v6H174V108M192 108h6v6H192V108M24 114h6v6H24V114M30 114h6v6H30V114M36 114h6v6H36V114M48 114h6v6H48V114M66 114h6v6H66V114M84 114h6v6H84V114M96 114h6v6H96V114M102 114h6v6H102V114M108 114h6v6H108V114M114 114h6v6H114V114M132 114h6v6H132V114M144 114h6v6H144V114M150 114h6v6H150V114M156 114h6v6H156V114M180 114h6v6H180V114M186 114h6v6H186V114M192 114h6v6H192V114M24 120h6v6H24V120M30 120h6v6H30V120M54 120h6v6H54V120M60 120h6v6H60V120M72 120h6v6H72V120M96 120h6v6H96V120M102 120h6v6H102V120M108 120h6v6H108V120M114 120h6v6H114V120M120 120h6v6H120V120M138 120h6v6H138V120M156 120h6v6H156V120M168 120h6v6H168V120M174 120h6v6H174V120M180 120h6v6H180V120M192 120h6v6H192V120M24 126h6v6H24V126M42 126h6v6H42V126M54 126h6v6H54V126M72 126h6v6H72V126M102 126h6v6H102V126M114 126h6v6H114V126M120 126h6v6H120V126M144 126h6v6H144V126M150 126h6v6H150V126M162 126h6v6H162V126M174 126h6v6H174V126M180 126h6v6H180V126M186 126h6v6H186V126M192 126h6v6H192V126M24 132h6v6H24V132M54 132h6v6H54V132M60 132h6v6H60V132M72 132h6v6H72V132M78 132h6v6H78V132M90 132h6v6H90V132M96 132h6v6H96V132M102 132h6v6H102V132M114 132h6v6H114V132M120 132h6v6H120V132M132 132h6v6H132V132M138 132h6v6H138V132M180 132h6v6H180V132M192 132h6v6H192V132M24 138h6v6H24V138M48 138h6v6H48V138M54 138h6v6H54V138M66 138h6v6H66V138M78 138h6v6H78V138M96 138h6v6H96V138M108 138h6v6H108V138M114 138h6v6H114V138M120 138h6v6H120V138M138 138h6v6H138V138M144 138h6v6H144V138M156 138h6v6H156V138M162 138h6v6H162V138M174 138h6v6H174V138M180 138h6v6H180V138M186 138h6v6H186V138M24 144h6v6H24V144M60 144h6v6H60V144M66 144h6v6H66V144M90 144h6v6H90V144M96 144h6v6H96V144M120 144h6v6H120V144M126 144h6v6H126V144M132 144h6v6H132V144M138 144h6v6H138V144M144 144h6v6H144V144M150 144h6v6H150V144M156 144h6v6H156V144M162 144h6v6H162V144M168 144h6v6H168V144M192 144h6v6H192V144M72 150h6v6H72V150M78 150h6v6H78V150M84 150h6v6H84V150M90 150h6v6H90V150M108 150h6v6H108V150M114 150h6v6H114V150M138 150h6v6H138V150M144 150h6v6H144V150M168 150h6v6H168V150M174 150h6v6H174V150M180 150h6v6H180V150M186 150h6v6H186V150M24 156h6v6H24V156M30 156h6v6H30V156M36 156h6v6H36V156M42 156h6v6H42V156M48 156h6v6H48V156M54 156h6v6H54V156M60 156h6v6H60V156M84 156h6v6H84V156M96 156h6v6H96V156M102 156h6v6H102V156M114 156h6v6H114V156M138 156h6v6H138V156M144 156h6v6H144V156M156 156h6v6H156V156M168 156h6v6H168V156M174 156h6v6H174V156M180 156h6v6H180V156M186 156h6v6H186V156M24 162h6v6H24V162M60 162h6v6H60V162M102 162h6v6H102V162M108 162h6v6H108V162M120 162h6v6H120V162M126 162h6v6H126V162M144 162h6v6H144V162M168 162h6v6H168V162M174 162h6v6H174V162M180 162h6v6H180V162M24 168h6v6H24V168M36 168h6v6H36V168M42 168h6v6H42V168M48 168h6v6H48V168M60 168h6v6H60V168M72 168h6v6H72V168M90 168h6v6H90V168M102 168h6v6H102V168M114 168h6v6H114V168M126 168h6v6H126V168M138 168h6v6H138V168M144 168h6v6H144V168M150 168h6v6H150V168M156 168h6v6H156V168M162 168h6v6H162V168M168 168h6v6H168V168M180 168h6v6H180V168M186 168h6v6H186V168M24 174h6v6H24V174M36 174h6v6H36V174M42 174h6v6H42V174M48 174h6v6H48V174M60 174h6v6H60V174M72 174h6v6H72V174M84 174h6v6H84V174M90 174h6v6H90V174M96 174h6v6H96V174M102 174h6v6H102V174M108 174h6v6H108V174M114 174h6v6H114V174M132 174h6v6H132V174M138 174h6v6H138V174M150 174h6v6H150V174M156 174h6v6H156V174M162 174h6v6H162V174M186 174h6v6H186V174M24 180h6v6H24V180M36 180h6v6H36V180M42 180h6v6H42V180M48 180h6v6H48V180M60 180h6v6H60V180M72 180h6v6H72V180M84 180h6v6H84V180M90 180h6v6H90V180M144 180h6v6H144V180M174 180h6v6H174V180M186 180h6v6H186V180M24 186h6v6H24V186M60 186h6v6H60V186M78 186h6v6H78V186M84 186h6v6H84V186M96 186h6v6H96V186M102 186h6v6H102V186M108 186h6v6H108V186M114 186h6v6H114V186M132 186h6v6H132V186M138 186h6v6H138V186M150 186h6v6H150V186M168 186h6v6H168V186M186 186h6v6H186V186M24 192h6v6H24V192M30 192h6v6H30V192M36 192h6v6H36V192M42 192h6v6H42V192M48 192h6v6H48V192M54 192h6v6H54V192M60 192h6v6H60V192M78 192h6v6H78V192M96 192h6v6H96V192M120 192h6v6H120V192M126 192h6v6H126V192M162 192h6v6H162V192M168 192h6v6H168V192M174 192h6v6H174V192"/></svg>